<svg width="48" height="48" viewBox="0 0 48 48" fill="none" xmlns="http://www.w3.org/2000/svg">
  <rect x="4" y="8" width="40" height="32" rx="8" fill="#F8F8F8"/>
  <mask id="us-mask" maskUnits="userSpaceOnUse" x="4" y="8" width="40" height="32">
    <rect x="4" y="8" width="40" height="32" rx="8" fill="white"/>
  </mask>
  <g mask="url(#us-mask)">
    <rect x="4" y="8" width="40" height="32" fill="#F8F8F8"/>
    <rect x="4" y="8" width="40" height="2.46" fill="#E24444"/>
    <rect x="4" y="12.92" width="40" height="2.46" fill="#E24444"/>
    <rect x="4" y="17.84" width="40" height="2.46" fill="#E24444"/>
    <rect x="4" y="22.76" width="40" height="2.46" fill="#E24444"/>
    <rect x="4" y="27.68" width="40" height="2.46" fill="#E24444"/>
    <rect x="4" y="32.6" width="40" height="2.46" fill="#E24444"/>
    <rect x="4" y="37.52" width="40" height="2.48" fill="#E24444"/>
    <rect x="4" y="8" width="18" height="17.2" fill="#2B4C9A"/>
    <g fill="#F8F8F8">
      <circle cx="7.2" cy="11.2" r="0.85"/>
      <circle cx="11.2" cy="11.2" r="0.85"/>
      <circle cx="15.2" cy="11.2" r="0.85"/>
      <circle cx="19.2" cy="11.2" r="0.85"/>
      <circle cx="9.2" cy="14.2" r="0.85"/>
      <circle cx="13.2" cy="14.2" r="0.85"/>
      <circle cx="17.2" cy="14.2" r="0.85"/>
      <circle cx="7.2" cy="17.2" r="0.85"/>
      <circle cx="11.2" cy="17.2" r="0.85"/>
      <circle cx="15.2" cy="17.2" r="0.85"/>
      <circle cx="19.2" cy="17.2" r="0.85"/>
      <circle cx="9.2" cy="20.2" r="0.85"/>
      <circle cx="13.2" cy="20.2" r="0.85"/>
      <circle cx="17.2" cy="20.2" r="0.85"/>
      <circle cx="7.2" cy="23.2" r="0.85"/>
      <circle cx="11.2" cy="23.2" r="0.85"/>
      <circle cx="15.2" cy="23.2" r="0.85"/>
      <circle cx="19.2" cy="23.2" r="0.85"/>
    </g>
  </g>
  <rect x="4" y="8" width="40" height="32" rx="8" stroke="#151515" stroke-opacity="0.18" stroke-width="1.5"/>
</svg>