<svg width="48" height="48" viewBox="0 0 48 48" fill="none" xmlns="http://www.w3.org/2000/svg">
  <circle cx="24" cy="24" r="19" fill="#57B7FF"/>
  <mask id="globe-mask" maskUnits="userSpaceOnUse" x="5" y="5" width="38" height="38">
    <circle cx="24" cy="24" r="19" fill="white"/>
  </mask>
  <g mask="url(#globe-mask)">
    <path d="M13 16.5C15.8 12.5 19.2 10.8 21.5 11.5C23.3 12 24.7 13.8 24.7 15.5C24.7 17.8 22.8 18.7 20.8 19.6C18.6 20.5 16.3 21.5 15.7 24C15 26.8 12.8 27.7 10.3 27.8L7.2 27.9C7.1 27.2 7 26.6 7 26C7 22.4 9.2 19.1 13 16.5Z" fill="#68C96B"/>
    <path d="M24.8 8.7C30.5 9 35.8 12.2 38.9 17L36.1 18.8C34.8 19.6 33.1 19.6 31.8 18.8L29.8 17.5C28.3 16.5 26.3 16.8 25.1 18.1L23.7 19.6C22.5 20.8 22.2 22.7 23.1 24.2L24.8 27C25.6 28.3 27.1 29.2 28.6 29.3L31.7 29.5C33.4 29.6 34.9 30.8 35.5 32.4L37.1 36.7C33.8 39.8 29.4 41.8 24.5 42L22.3 37.8C21.4 36.1 19.7 35 17.8 34.8L15.6 34.5C13.8 34.2 12.4 32.8 12.1 31L11.9 29.8C11.5 27.8 12.7 25.9 14.6 25.2L17.8 24C19.8 23.2 21.1 21.3 21.1 19.2V17.9C21.1 16.4 21.9 15 23.2 14.2L24.5 13.4C26.4 12.2 27 9.9 24.8 8.7Z" fill="#68C96B"/>
  </g>
  <circle cx="24" cy="24" r="19" stroke="#151515" stroke-opacity="0.18" stroke-width="1.5"/>
</svg>